<svg viewBox="0 0 20 20" fill="none" xmlns="http://www.w3.org/2000/svg">
<g clip-path="url(#clip0_8_625)">
<rect width="412" height="917" transform="translate(-34 -72)" fill="#F8F8F8"/>
<g clip-path="url(#clip1_8_625)">
<rect width="412" height="120" transform="translate(-34 -72)" fill="white"/>
<rect x="-6" y="-6" width="32" height="32" rx="12" fill="#E9EBF3"/>
<g clip-path="url(#clip2_8_625)">
<path fill-rule="evenodd" clip-rule="evenodd" d="M5.83333 10.8337V9.16699H7.5V10.8337H5.83333ZM9.16667 9.16699H10.8333V10.8337H9.16667V9.16699ZM12.5 10.8337V9.16699H14.1667V10.8337H12.5ZM15 3.33366H15.8333C16.75 3.33366 17.5 4.08366 17.5 5.00033V11.0187C17.3401 11.0062 17.1803 11.0002 17.0225 11.0002C16.629 11.0002 16.2222 11.0358 15.8333 11.1186V7.50033H4.16667V16.667H8.5V18.3337H4.16667C3.24167 18.3337 2.5 17.5837 2.5 16.667L2.50833 5.00033C2.50833 4.08366 3.24167 3.33366 4.16667 3.33366H5V1.66699H6.66667V3.33366H13.3333V1.66699H15V3.33366Z" fill="currentcolor"/>
<g clip-path="url(#clip3_8_625)">
<path d="M18.6252 12.2917C18.1164 12.1313 17.5572 12.0625 17.021 12.0625C16.1272 12.0625 15.1647 12.2458 14.5002 12.75C13.8356 12.2458 12.8731 12.0625 11.9793 12.0625C11.0856 12.0625 10.1231 12.2458 9.4585 12.75V19.4646C9.4585 19.5792 9.57308 19.6938 9.68766 19.6938C9.7335 19.6938 9.75641 19.6708 9.80225 19.6708C10.421 19.3729 11.3147 19.1667 11.9793 19.1667C12.8731 19.1667 13.8356 19.35 14.5002 19.8542C15.1189 19.4646 16.2418 19.1667 17.021 19.1667C17.7772 19.1667 18.5564 19.3042 19.1981 19.6479C19.2439 19.6708 19.2668 19.6708 19.3127 19.6708C19.4272 19.6708 19.5418 19.5563 19.5418 19.4417V12.75C19.2668 12.5438 18.9689 12.4063 18.6252 12.2917Z" fill="currentcolor"/>
</g>
</g>
</g>
</g>
<defs>
<clipPath id="clip0_8_625">
<rect width="412" height="917" fill="white" transform="translate(-34 -72)"/>
</clipPath>
<clipPath id="clip1_8_625">
<rect width="412" height="120" fill="white" transform="translate(-34 -72)"/>
</clipPath>
<clipPath id="clip2_8_625">
<rect width="20" height="20" fill="white"/>
</clipPath>
<clipPath id="clip3_8_625">
<rect width="11" height="11" fill="white" transform="translate(9 10)"/>
</clipPath>
</defs>
</svg>
