<svg width="26" height="24" viewBox="0 0 26 24"  xmlns="http://www.w3.org/2000/svg">
<path d="M25.0809 11.8087L14.5153 1.24851L13.8071 0.540303C13.6457 0.380005 13.4275 0.290039 13.2 0.290039C12.9726 0.290039 12.7544 0.380005 12.593 0.540303L1.31917 11.8087C1.15382 11.9734 1.02315 12.1695 0.934858 12.3855C0.846567 12.6016 0.802448 12.8331 0.805106 13.0665C0.816044 14.029 1.61722 14.7973 2.57972 14.7973H3.74182V23.7032H22.6582V14.7973H23.8449C24.3125 14.7973 24.7528 14.6141 25.0836 14.2833C25.2465 14.1209 25.3756 13.9278 25.4634 13.7152C25.5512 13.5025 25.5959 13.2746 25.5949 13.0446C25.5949 12.5798 25.4117 12.1395 25.0809 11.8087ZM14.7313 21.7344H11.6688V16.1563H14.7313V21.7344ZM20.6895 12.8286V21.7344H16.4813V15.5001C16.4813 14.8958 15.9918 14.4063 15.3875 14.4063H11.0125C10.4082 14.4063 9.91878 14.8958 9.91878 15.5001V21.7344H5.71057V12.8286H3.08557L13.2028 2.7196L13.8344 3.35124L23.3172 12.8286H20.6895Z" />
</svg>
