<svg width="29" height="28" viewBox="0 0 29 28" xmlns="http://www.w3.org/2000/svg">
<path d="M8.67505 11.5117C8.67505 11.8598 8.81333 12.1937 9.05947 12.4398C9.30561 12.6859 9.63945 12.8242 9.98755 12.8242C10.3356 12.8242 10.6695 12.6859 10.9156 12.4398C11.1618 12.1937 11.3 11.8598 11.3 11.5117C11.3 11.1636 11.1618 10.8298 10.9156 10.5836C10.6695 10.3375 10.3356 10.1992 9.98755 10.1992C9.63945 10.1992 9.30561 10.3375 9.05947 10.5836C8.81333 10.8298 8.67505 11.1636 8.67505 11.5117ZM18.3 11.5117C18.3 11.8598 18.4383 12.1937 18.6845 12.4398C18.9306 12.6859 19.2645 12.8242 19.6125 12.8242C19.9606 12.8242 20.2945 12.6859 20.5406 12.4398C20.7868 12.1937 20.925 11.8598 20.925 11.5117C20.925 11.1636 20.7868 10.8298 20.5406 10.5836C20.2945 10.3375 19.9606 10.1992 19.6125 10.1992C19.2645 10.1992 18.9306 10.3375 18.6845 10.5836C18.4383 10.8298 18.3 11.1636 18.3 11.5117ZM14.8 1.75C8.03521 1.75 2.55005 7.23516 2.55005 14C2.55005 20.7648 8.03521 26.25 14.8 26.25C21.5649 26.25 27.05 20.7648 27.05 14C27.05 7.23516 21.5649 1.75 14.8 1.75ZM21.9915 21.1914C21.0563 22.1266 19.968 22.8594 18.7567 23.3734C17.5071 23.9039 16.1754 24.1719 14.8 24.1719C13.4247 24.1719 12.093 23.9039 10.8407 23.3734C9.63118 22.8626 8.53254 22.1215 7.60591 21.1914C6.67075 20.2563 5.93794 19.168 5.42388 17.9566C4.89614 16.707 4.62817 15.3754 4.62817 14C4.62817 12.6246 4.89614 11.293 5.42661 10.0406C5.93741 8.83113 6.67851 7.73249 7.60864 6.80586C8.5438 5.8707 9.63208 5.13789 10.8434 4.62383C12.093 4.09609 13.4247 3.82812 14.8 3.82812C16.1754 3.82812 17.5071 4.09609 18.7594 4.62656C19.9689 5.13737 21.0676 5.87846 21.9942 6.80859C22.9293 7.74375 23.6622 8.83203 24.1762 10.0434C24.704 11.293 24.9719 12.6246 24.9719 14C24.9719 15.3754 24.704 16.707 24.1735 17.9594C23.6633 19.1684 22.9221 20.2663 21.9915 21.1914ZM18.9563 14.5742H17.6411C17.5262 14.5742 17.4278 14.6617 17.4196 14.7766C17.3157 16.1301 16.1809 17.1992 14.8 17.1992C13.4192 17.1992 12.2817 16.1301 12.1805 14.7766C12.1723 14.6617 12.0739 14.5742 11.959 14.5742H10.6438C10.6141 14.5742 10.5848 14.5802 10.5575 14.5919C10.5302 14.6035 10.5056 14.6206 10.4851 14.6421C10.4647 14.6636 10.4488 14.689 10.4385 14.7168C10.4281 14.7446 10.4236 14.7743 10.425 14.8039C10.5454 17.109 12.4622 18.9492 14.8 18.9492C17.1379 18.9492 19.0547 17.109 19.175 14.8039C19.1765 14.7743 19.172 14.7446 19.1616 14.7168C19.1513 14.689 19.1354 14.6636 19.115 14.6421C19.0945 14.6206 19.0699 14.6035 19.0426 14.5919C19.0153 14.5802 18.986 14.5742 18.9563 14.5742Z" />
</svg>
