<svg width="23" height="22" viewBox="0 0 23 22" xmlns="http://www.w3.org/2000/svg">
<path d="M21.6625 2.03125H17.0688V0.28125C17.0688 0.160937 16.9703 0.0625 16.85 0.0625H15.3188C15.1985 0.0625 15.1 0.160937 15.1 0.28125V2.03125H8.10004V0.28125C8.10004 0.160937 8.0016 0.0625 7.88129 0.0625H6.35004C6.22972 0.0625 6.13129 0.160937 6.13129 0.28125V2.03125H1.53754C1.05355 2.03125 0.662537 2.42227 0.662537 2.90625V21.0625C0.662537 21.5465 1.05355 21.9375 1.53754 21.9375H21.6625C22.1465 21.9375 22.5375 21.5465 22.5375 21.0625V2.90625C22.5375 2.42227 22.1465 2.03125 21.6625 2.03125ZM20.5688 19.9688H2.63129V9.57812H20.5688V19.9688ZM2.63129 7.71875V4H6.13129V5.3125C6.13129 5.43281 6.22972 5.53125 6.35004 5.53125H7.88129C8.0016 5.53125 8.10004 5.43281 8.10004 5.3125V4H15.1V5.3125C15.1 5.43281 15.1985 5.53125 15.3188 5.53125H16.85C16.9703 5.53125 17.0688 5.43281 17.0688 5.3125V4H20.5688V7.71875H2.63129Z"/>
</svg>
